<svg xmlns="http://www.w3.org/2000/svg" width="980" height="540" viewBox="0 0 980 540">
  <defs>
    <filter id="shadow" x="-20%" y="-20%" width="140%" height="140%">
      <feDropShadow dx="0" dy="2" stdDeviation="2" flood-color="#0f172a" flood-opacity="0.14"/>
    </filter>
  </defs>

  <rect width="980" height="540" rx="18" fill="#f8fafc"/>

  <text x="490" y="44" text-anchor="middle" font-family="Malgun Gothic, Arial, sans-serif" font-size="28" font-weight="700" fill="#111827">
    Word2Vec 2차원 시각화 예시
  </text>
  <text x="490" y="76" text-anchor="middle" font-family="Malgun Gothic, Arial, sans-serif" font-size="16" fill="#475569">
    단어 벡터를 2차원으로 줄여 그리면, 비슷하게 쓰인 단어들이 가까이 모여 보입니다.
  </text>

  <g filter="url(#shadow)">
    <rect x="88" y="104" width="804" height="342" rx="14" fill="#ffffff" stroke="#d1d5db"/>
  </g>

  <line x1="140" y1="390" x2="842" y2="390" stroke="#94a3b8" stroke-width="2"/>
  <line x1="140" y1="390" x2="140" y2="145" stroke="#94a3b8" stroke-width="2"/>
  <text x="846" y="397" font-family="Malgun Gothic, Arial, sans-serif" font-size="13" fill="#64748b">차원 1</text>
  <text x="112" y="142" font-family="Malgun Gothic, Arial, sans-serif" font-size="13" fill="#64748b">차원 2</text>

  <ellipse cx="294" cy="246" rx="138" ry="88" fill="#dbeafe" stroke="#3b82f6" stroke-width="2" stroke-dasharray="7 5"/>
  <text x="294" y="158" text-anchor="middle" font-family="Malgun Gothic, Arial, sans-serif" font-size="17" font-weight="700" fill="#1d4ed8">
    금융 관련 단어
  </text>
  <circle cx="234" cy="230" r="11" fill="#2563eb"/>
  <text x="250" y="235" font-family="Malgun Gothic, Arial, sans-serif" font-size="16" fill="#111827">은행</text>
  <circle cx="315" cy="210" r="11" fill="#2563eb"/>
  <text x="331" y="215" font-family="Malgun Gothic, Arial, sans-serif" font-size="16" fill="#111827">대출</text>
  <circle cx="357" cy="258" r="11" fill="#2563eb"/>
  <text x="373" y="263" font-family="Malgun Gothic, Arial, sans-serif" font-size="16" fill="#111827">금리</text>
  <circle cx="279" cy="284" r="11" fill="#2563eb"/>
  <text x="295" y="289" font-family="Malgun Gothic, Arial, sans-serif" font-size="16" fill="#111827">입금</text>
  <circle cx="206" cy="279" r="11" fill="#2563eb"/>
  <text x="222" y="284" font-family="Malgun Gothic, Arial, sans-serif" font-size="16" fill="#111827">환율</text>

  <ellipse cx="503" cy="206" rx="122" ry="78" fill="#ffedd5" stroke="#f97316" stroke-width="2" stroke-dasharray="7 5"/>
  <text x="503" y="128" text-anchor="middle" font-family="Malgun Gothic, Arial, sans-serif" font-size="17" font-weight="700" fill="#c2410c">
    학교 관련 단어
  </text>
  <circle cx="453" cy="194" r="11" fill="#f97316"/>
  <text x="469" y="199" font-family="Malgun Gothic, Arial, sans-serif" font-size="16" fill="#111827">학교</text>
  <circle cx="523" cy="176" r="11" fill="#f97316"/>
  <text x="539" y="181" font-family="Malgun Gothic, Arial, sans-serif" font-size="16" fill="#111827">학생</text>
  <circle cx="553" cy="231" r="11" fill="#f97316"/>
  <text x="569" y="236" font-family="Malgun Gothic, Arial, sans-serif" font-size="16" fill="#111827">수업</text>
  <circle cx="480" cy="239" r="11" fill="#f97316"/>
  <text x="496" y="244" font-family="Malgun Gothic, Arial, sans-serif" font-size="16" fill="#111827">공부</text>

  <ellipse cx="681" cy="324" rx="142" ry="82" fill="#dcfce7" stroke="#22c55e" stroke-width="2" stroke-dasharray="7 5"/>
  <text x="681" y="242" text-anchor="middle" font-family="Malgun Gothic, Arial, sans-serif" font-size="17" font-weight="700" fill="#15803d">
    음식 관련 단어
  </text>
  <circle cx="621" cy="303" r="11" fill="#16a34a"/>
  <text x="637" y="308" font-family="Malgun Gothic, Arial, sans-serif" font-size="16" fill="#111827">사과</text>
  <circle cx="696" cy="288" r="11" fill="#16a34a"/>
  <text x="712" y="293" font-family="Malgun Gothic, Arial, sans-serif" font-size="16" fill="#111827">바나나</text>
  <circle cx="745" cy="332" r="11" fill="#16a34a"/>
  <text x="761" y="337" font-family="Malgun Gothic, Arial, sans-serif" font-size="16" fill="#111827">과일</text>
  <circle cx="653" cy="359" r="11" fill="#16a34a"/>
  <text x="669" y="364" font-family="Malgun Gothic, Arial, sans-serif" font-size="16" fill="#111827">김밥</text>
  <circle cx="593" cy="343" r="11" fill="#16a34a"/>
  <text x="609" y="348" font-family="Malgun Gothic, Arial, sans-serif" font-size="16" fill="#111827">먹다</text>

  <rect x="602" y="118" width="238" height="54" rx="10" fill="#f1f5f9" stroke="#cbd5e1"/>
  <text x="721" y="140" text-anchor="middle" font-family="Malgun Gothic, Arial, sans-serif" font-size="14" font-weight="700" fill="#111827">
    읽는 방법
  </text>
  <text x="721" y="160" text-anchor="middle" font-family="Malgun Gothic, Arial, sans-serif" font-size="13" fill="#475569">
    가까운 점일수록 비슷한 쓰임
  </text>

  <text x="490" y="494" text-anchor="middle" font-family="Malgun Gothic, Arial, sans-serif" font-size="16" font-weight="700" fill="#111827">
    이 그림은 결과를 이해하기 위한 개념도입니다. 실제 실습에서는 학습된 단어 벡터를 PCA로 2차원으로 줄여 그립니다.
  </text>
</svg>
